<svg width="1000" height="1000" viewBox="0 0 1000 1000" fill="none" xmlns="http://www.w3.org/2000/svg">
<rect width="1000" height="1000" fill="white"/>
<path d="M304 752H696C710.852 752 725.096 746.1 735.598 735.598C746.1 725.096 752 710.852 752 696V304C752 289.148 746.1 274.904 735.598 264.402C725.096 253.9 710.852 248 696 248H304C289.148 248 274.904 253.9 264.402 264.402C253.9 274.904 248 289.148 248 304V696C248 710.852 253.9 725.096 264.402 735.598C274.904 746.1 289.148 752 304 752ZM388 556L454.164 622.164L556 472L696 668H304L388 556Z" fill="#F0F0F0"/>
</svg>
